<svg id="Calque_2" data-name="Calque 2" xmlns="http://www.w3.org/2000/svg" xmlns:xlink="http://www.w3.org/1999/xlink" viewBox="0 0 538.79 503.12"><defs><style>.cls-1,.cls-2,.cls-3{fill:none;stroke-linecap:round;stroke-width:15px;}.cls-1,.cls-2{stroke-linejoin:round;}.cls-1{stroke:url(#Dégradé_sans_nom_7);}.cls-2{stroke:url(#Dégradé_sans_nom_7-2);}.cls-3{stroke-miterlimit:10;stroke:url(#Dégradé_sans_nom_7-3);}.cls-4{fill:url(#Dégradé_sans_nom_7-4);}.cls-5{fill:url(#Dégradé_sans_nom_7-5);}.cls-6{fill:url(#Dégradé_sans_nom_7-6);}.cls-7{fill:url(#Dégradé_sans_nom_7-7);}</style><linearGradient id="Dégradé_sans_nom_7" x1="246.88" y1="86.86" x2="547.78" y2="86.86" gradientUnits="userSpaceOnUse"><stop offset="0" stop-color="#6bba7b"/><stop offset="1" stop-color="#37a0da"/></linearGradient><linearGradient id="Dégradé_sans_nom_7-2" x1="536.94" y1="419.62" x2="626.76" y2="419.62" xlink:href="#Dégradé_sans_nom_7"/><linearGradient id="Dégradé_sans_nom_7-3" x1="163.14" y1="419.62" x2="252.96" y2="419.62" xlink:href="#Dégradé_sans_nom_7"/><linearGradient id="Dégradé_sans_nom_7-4" x1="278.09" y1="469.46" x2="511.33" y2="469.46" xlink:href="#Dégradé_sans_nom_7"/><linearGradient id="Dégradé_sans_nom_7-5" x1="432.15" y1="242.24" x2="665.39" y2="242.24" xlink:href="#Dégradé_sans_nom_7"/><linearGradient id="Dégradé_sans_nom_7-6" x1="126.61" y1="277.84" x2="359.85" y2="277.84" xlink:href="#Dégradé_sans_nom_7"/><linearGradient id="Dégradé_sans_nom_7-7" x1="126.61" y1="229.09" x2="359.85" y2="229.09" xlink:href="#Dégradé_sans_nom_7"/></defs><path class="cls-1" d="M254.38,115.53h0a206.86,206.86,0,0,1,285.9,0h0" transform="translate(-126.61 -50.69)"/><path class="cls-2" d="M619.26,361.06a207,207,0,0,1-74.82,117.11" transform="translate(-126.61 -50.69)"/><path class="cls-3" d="M170.64,361.06a207,207,0,0,0,74.82,117.11" transform="translate(-126.61 -50.69)"/><path class="cls-4" d="M500.14,385.11H289.28a11.22,11.22,0,0,0-11.19,11.19V542.62a11.22,11.22,0,0,0,11.19,11.19H500.14a11.22,11.22,0,0,0,11.19-11.19V396.3A11.22,11.22,0,0,0,500.14,385.11Zm-50,89.31-83.42,47.89a4.6,4.6,0,0,1-6.89-4V422.54a4.6,4.6,0,0,1,6.89-4l83.42,47.89A4.6,4.6,0,0,1,450.16,474.42Z" transform="translate(-126.61 -50.69)"/><path class="cls-5" d="M654.2,157.9H443.34a11.21,11.21,0,0,0-11.19,11.18V315.4a11.22,11.22,0,0,0,11.19,11.19H654.2a11.22,11.22,0,0,0,11.19-11.19V169.08A11.21,11.21,0,0,0,654.2,157.9ZM583.91,241c-3.8,26.45-11.38,35.83-13.28,32.35s8.85-19.91,7-40.15-21.19-35.4-21.19-35.4.32,59.75,0,80.93a11.85,11.85,0,0,1-.61,3.67c-1.56,10.42-13.85,18.56-29,18.56-16.16,0-29.27-9.28-29.27-20.73s13.11-20.74,29.27-20.74c9.71,0,18.25,3.38,23.57,8.54V170.31c4.74-4.74,7.9,1.9,7.9,1.9C562.09,190.54,587.7,214.57,583.91,241Z" transform="translate(-126.61 -50.69)"/><path class="cls-6" d="M300.54,230.41a4.5,4.5,0,0,0-6.35,0l-79.82,79.82a4.48,4.48,0,0,1-6.34,0l-36.72-36.72a4.48,4.48,0,0,0-6.34,0l-38.36,38.37v3.52a11.22,11.22,0,0,0,11.19,11.19H348.66a11.22,11.22,0,0,0,11.19-11.19V289.72Z" transform="translate(-126.61 -50.69)"/><path class="cls-7" d="M165,261.91a4.48,4.48,0,0,1,6.34,0L208,298.63a4.48,4.48,0,0,0,6.34,0l79.82-79.82a4.5,4.5,0,0,1,6.35,0l59.31,59.32v-109a11.21,11.21,0,0,0-11.19-11.18H137.8a11.21,11.21,0,0,0-11.19,11.18v131.2Zm22.64-85.29a20.44,20.44,0,1,1-20.44,20.44A20.44,20.44,0,0,1,187.61,176.62Z" transform="translate(-126.61 -50.69)"/></svg>